{
  "accessors": [
    {
      "bufferView": 2,
      "componentType": 5126,
      "count": 65532,
      "max": [
        10760.8837890625,
        7464,
        -6427.6552734375
      ],
      "min": [
        -10760.8837890625,
        4975,
        -10017.6357421875
      ],
      "type": "VEC3"
    },
    {
      "bufferView": 2,
      "byteOffset": 786384,
      "componentType": 5126,
      "count": 65532,
      "max": [
        0.92120826244354248,
        1,
        0.90906047821044922
      ],
      "min": [
        -0.93238675594329834,
        0.238148033618927,
        -0.95592957735061646
      ],
      "type": "VEC3"
    },
    {
      "bufferView": 1,
      "componentType": 5126,
      "count": 65532,
      "max": [
        1,
        0.17918302118778229
      ],
      "min": [
        0,
        0
      ],
      "type": "VEC2"
    },
    {
      "bufferView": 0,
      "componentType": 5125,
      "count": 388446,
      "max": [
        65531
      ],
      "min": [
        0
      ],
      "type": "SCALAR"
    },
    {
      "bufferView": 2,
      "byteOffset": 1572768,
      "componentType": 5126,
      "count": 65532,
      "max": [
        10760.8837890625,
        7466,
        -2877.0322265625
      ],
      "min": [
        -10760.8837890625,
        5139,
        -6465.84033203125
      ],
      "type": "VEC3"
    },
    {
      "bufferView": 2,
      "byteOffset": 2359152,
      "componentType": 5126,
      "count": 65532,
      "max": [
        0.91472512483596802,
        1,
        0.92509961128234863
      ],
      "min": [
        -0.97046041488647461,
        0.17709770798683167,
        -0.9226955771446228
      ],
      "type": "VEC3"
    },
    {
      "bufferView": 1,
      "byteOffset": 524256,
      "componentType": 5126,
      "count": 65532,
      "max": [
        1,
        0.35640162229537964
      ],
      "min": [
        0,
        0.17727713286876678
      ],
      "type": "VEC2"
    },
    {
      "bufferView": 0,
      "byteOffset": 1553784,
      "componentType": 5125,
      "count": 388443,
      "max": [
        65531
      ],
      "min": [
        0
      ],
      "type": "SCALAR"
    },
    {
      "bufferView": 2,
      "byteOffset": 3145536,
      "componentType": 5126,
      "count": 65532,
      "max": [
        10760.8837890625,
        8564,
        672.43194580078125
      ],
      "min": [
        -10760.8837890625,
        5347,
        -2953.377685546875
      ],
      "type": "VEC3"
    },
    {
      "bufferView": 2,
      "byteOffset": 3931920,
      "componentType": 5126,
      "count": 65532,
      "max": [
        0.99489766359329224,
        1,
        0.99426800012588501
      ],
      "min": [
        -0.98784536123275757,
        0.05471193790435791,
        -0.95900487899780273
      ],
      "type": "VEC3"
    },
    {
      "bufferView": 1,
      "byteOffset": 1048512,
      "componentType": 5126,
      "count": 65532,
      "max": [
        1,
        0.53356242179870605
      ],
      "min": [
        0,
        0.35259106755256653
      ],
      "type": "VEC2"
    },
    {
      "bufferView": 0,
      "byteOffset": 3107556,
      "componentType": 5125,
      "count": 388449,
      "max": [
        65531
      ],
      "min": [
        0
      ],
      "type": "SCALAR"
    },
    {
      "bufferView": 2,
      "byteOffset": 4718304,
      "componentType": 5126,
      "count": 65532,
      "max": [
        10760.8837890625,
        7329,
        4258.88671875
      ],
      "min": [
        -10760.8837890625,
        5033,
        -2915.204833984375
      ],
      "type": "VEC3"
    },
    {
      "bufferView": 2,
      "byteOffset": 5504688,
      "componentType": 5126,
      "count": 65532,
      "max": [
        0.99461585283279419,
        1,
        0.99323946237564087
      ],
      "min": [
        -0.98893511295318604,
        0.085833519697189331,
        -0.93427491188049316
      ],
      "type": "VEC3"
    },
    {
      "bufferView": 1,
      "byteOffset": 1572768,
      "componentType": 5126,
      "count": 65532,
      "max": [
        1,
        0.7125694751739502
      ],
      "min": [
        0,
        0.35449635982513428
      ],
      "type": "VEC2"
    },
    {
      "bufferView": 0,
      "byteOffset": 4661352,
      "componentType": 5125,
      "count": 388428,
      "max": [
        65531
      ],
      "min": [
        0
      ],
      "type": "SCALAR"
    },
    {
      "bufferView": 2,
      "byteOffset": 6291072,
      "componentType": 5126,
      "count": 65532,
      "max": [
        10760.8837890625,
        7849,
        7844.16064453125
      ],
      "min": [
        -10760.8837890625,
        3964,
        4068.1474609375
      ],
      "type": "VEC3"
    },
    {
      "bufferView": 2,
      "byteOffset": 7077456,
      "componentType": 5126,
      "count": 65532,
      "max": [
        0.99457621574401855,
        1,
        0.98753458261489868
      ],
      "min": [
        -0.99817019701004028,
        0.043800462037324905,
        -0.99161332845687866
      ],
      "type": "VEC3"
    },
    {
      "bufferView": 1,
      "byteOffset": 2097024,
      "componentType": 5126,
      "count": 65532,
      "max": [
        1,
        0.89151757955551147
      ],
      "min": [
        0,
        0.70304930210113525
      ],
      "type": "VEC2"
    },
    {
      "bufferView": 0,
      "byteOffset": 6215064,
      "componentType": 5125,
      "count": 388443,
      "max": [
        65531
      ],
      "min": [
        0
      ],
      "type": "SCALAR"
    },
    {
      "bufferView": 2,
      "byteOffset": 7863840,
      "componentType": 5126,
      "count": 42456,
      "max": [
        10760.8837890625,
        7982,
        10017.6357421875
      ],
      "min": [
        -10760.8837890625,
        4705,
        7615.3486328125
      ],
      "type": "VEC3"
    },
    {
      "bufferView": 2,
      "byteOffset": 8373312,
      "componentType": 5126,
      "count": 42456,
      "max": [
        0.99102801084518433,
        1,
        0.9958992600440979
      ],
      "min": [
        -0.98103690147399902,
        0.047768972814083099,
        -0.9895097017288208
      ],
      "type": "VEC3"
    },
    {
      "bufferView": 1,
      "byteOffset": 2621280,
      "componentType": 5126,
      "count": 42456,
      "max": [
        1,
        1
      ],
      "min": [
        0,
        0.88009709119796753
      ],
      "type": "VEC2"
    },
    {
      "bufferView": 0,
      "byteOffset": 7768836,
      "componentType": 5125,
      "count": 250191,
      "max": [
        42455
      ],
      "min": [
        0
      ],
      "type": "SCALAR"
    }
  ],
  "asset": {
    "extras": {
      "author": "Budots Media (https://sketchfab.com/BudotsM)",
      "license": "CC-BY-NC-SA-4.0 (http://creativecommons.org/licenses/by-nc-sa/4.0/)",
      "source": "https://sketchfab.com/3d-models/k2-srtm-gl1-elevationapi-45628cf05bc0493aaebe31d32dbc48c1",
      "title": "K2 SRTM_GL1 elevationapi"
    },
    "generator": "Sketchfab-9.66.0",
    "version": "2.0"
  },
  "bufferViews": [
    {
      "buffer": 0,
      "byteLength": 8769600,
      "byteOffset": 0,
      "name": "floatBufferViews",
      "target": 34963
    },
    {
      "buffer": 0,
      "byteLength": 2960928,
      "byteOffset": 8769600,
      "byteStride": 8,
      "name": "floatBufferViews",
      "target": 34962
    },
    {
      "buffer": 0,
      "byteLength": 8882784,
      "byteOffset": 11730528,
      "byteStride": 12,
      "name": "floatBufferViews",
      "target": 34962
    }
  ],
  "buffers": [
    {
      "byteLength": 20613312,
      "uri": "scene.bin"
    }
  ],
  "images": [
    {
      "uri": "TerrainNodeMaterial_baseColor.jpeg"
    }
  ],
  "materials": [
    {
      "doubleSided": true,
      "emissiveFactor": [
        0,
        0,
        0
      ],
      "name": "TerrainNodeMaterial",
      "pbrMetallicRoughness": {
        "baseColorFactor": [
          1,
          1,
          1,
          1
        ],
        "baseColorTexture": {
          "index": 0,
          "texCoord": 0
        },
        "metallicFactor": 0.14999999999999999,
        "roughnessFactor": 0.84999999999999998
      }
    }
  ],
  "meshes": [
    {
      "primitives": [
        {
          "attributes": {
            "NORMAL": 1,
            "POSITION": 0,
            "TEXCOORD_0": 2
          },
          "indices": 3,
          "material": 0,
          "mode": 4
        }
      ]
    },
    {
      "primitives": [
        {
          "attributes": {
            "NORMAL": 5,
            "POSITION": 4,
            "TEXCOORD_0": 6
          },
          "indices": 7,
          "material": 0,
          "mode": 4
        }
      ]
    },
    {
      "primitives": [
        {
          "attributes": {
            "NORMAL": 9,
            "POSITION": 8,
            "TEXCOORD_0": 10
          },
          "indices": 11,
          "material": 0,
          "mode": 4
        }
      ]
    },
    {
      "primitives": [
        {
          "attributes": {
            "NORMAL": 13,
            "POSITION": 12,
            "TEXCOORD_0": 14
          },
          "indices": 15,
          "material": 0,
          "mode": 4
        }
      ]
    },
    {
      "primitives": [
        {
          "attributes": {
            "NORMAL": 17,
            "POSITION": 16,
            "TEXCOORD_0": 18
          },
          "indices": 19,
          "material": 0,
          "mode": 4
        }
      ]
    },
    {
      "primitives": [
        {
          "attributes": {
            "NORMAL": 21,
            "POSITION": 20,
            "TEXCOORD_0": 22
          },
          "indices": 23,
          "material": 0,
          "mode": 4
        }
      ]
    }
  ],
  "nodes": [
    {
      "children": [
        1
      ],
      "name": "RootNode (gltf orientation matrix)",
      "rotation": [
        -0.70710678118654746,
        -0,
        -0,
        0.70710678118654757
      ]
    },
    {
      "children": [
        2
      ],
      "name": "RootNode (model correction matrix)"
    },
    {
      "children": [
        3
      ],
      "name": "root"
    },
    {
      "children": [
        4
      ],
      "matrix": [
        1,
        0,
        0,
        0,
        0,
        2.2204460492503131e-16,
        1,
        0,
        0,
        -1,
        2.2204460492503131e-16,
        0,
        0,
        0,
        0,
        1
      ],
      "name": "GLTF_SceneRootNode"
    },
    {
      "children": [
        5,
        6,
        7,
        8,
        9,
        10
      ],
      "name": "TerrainNode_0"
    },
    {
      "mesh": 0,
      "name": ""
    },
    {
      "mesh": 1,
      "name": ""
    },
    {
      "mesh": 2,
      "name": ""
    },
    {
      "mesh": 3,
      "name": ""
    },
    {
      "mesh": 4,
      "name": ""
    },
    {
      "mesh": 5,
      "name": ""
    }
  ],
  "samplers": [
    {
      "magFilter": 9729,
      "minFilter": 9987,
      "wrapS": 10497,
      "wrapT": 10497
    }
  ],
  "scene": 0,
  "scenes": [
    {
      "name": "OSG_Scene",
      "nodes": [
        0
      ]
    }
  ],
  "textures": [
    {
      "sampler": 0,
      "source": 0
    }
  ]
}

